<svg width="128" height="128" viewBox="0 0 128 128" fill="none" xmlns="http://www.w3.org/2000/svg">
<path d="M0.849976 51.7299H5.78998V69.7099H14.93V74.2699H0.849976V51.7299ZM17.11 58.9999H21.85V74.2599H17.11V58.9999ZM19.48 51.4099C20.0239 51.4099 20.5556 51.5712 21.0078 51.8734C21.46 52.1755 21.8125 52.605 22.0206 53.1075C22.2288 53.61 22.2832 54.163 22.1771 54.6964C22.071 55.2299 21.8091 55.7199 21.4245 56.1045C21.0399 56.489 20.5499 56.751 20.0165 56.8571C19.483 56.9632 18.9301 56.9087 18.4276 56.7006C17.9251 56.4924 17.4956 56.14 17.1934 55.6877C16.8913 55.2355 16.73 54.7038 16.73 54.1599C16.73 53.4306 17.0197 52.7311 17.5354 52.2154C18.0512 51.6996 18.7506 51.4099 19.48 51.4099ZM41.69 51.7299H46.43V65.1999L51.81 58.9799H57.62L51.4 66.0499L57.49 74.2699H51.53L46.49 66.7199H46.43V74.2699H41.69V51.7299ZM24.48 58.9999H29V61.0899H29.06C29.5159 60.3114 30.174 59.6708 30.9645 59.236C31.755 58.8011 32.6483 58.5882 33.55 58.6199C38.36 58.6199 39.24 61.7799 39.24 65.8899V74.2699H34.54V66.8399C34.54 65.0699 34.54 62.8399 32.07 62.8399C29.6 62.8399 29.22 64.7699 29.22 66.7599V74.3099H24.48V58.9999Z" fill="#C4C4C4"/>
<path d="M67.61 64.85C67.6196 64.4653 67.5509 64.0826 67.408 63.7252C67.2652 63.3678 67.0512 63.0431 66.779 62.771C66.5069 62.4988 66.1822 62.2848 65.8248 62.142C65.4674 61.9991 65.0847 61.9304 64.7 61.94C63.8712 61.8876 63.0552 62.1636 62.4283 62.7081C61.8014 63.2527 61.414 64.0221 61.35 64.85H67.61ZM71.61 71.62C70.8189 72.5681 69.8273 73.3289 68.7068 73.8477C67.5863 74.3664 66.3647 74.6302 65.13 74.62C60.39 74.62 56.59 71.46 56.59 66.55C56.59 61.64 60.39 58.49 65.13 58.49C69.56 58.49 72.34 61.65 72.34 66.55V68.04H61.34C61.4706 68.8877 61.9046 69.6591 62.5612 70.2109C63.2178 70.7627 64.0525 71.0573 64.91 71.04C65.5854 71.0391 66.2496 70.8671 66.8407 70.5401C67.4317 70.2131 67.9303 69.7418 68.29 69.17L71.61 71.62ZM82.23 62.68C81.4559 62.6561 80.6924 62.8638 80.0371 63.2765C79.3818 63.6891 78.8646 64.288 78.5517 64.9964C78.2388 65.7047 78.1444 66.4904 78.2807 67.2527C78.4169 68.015 78.7776 68.7193 79.3166 69.2754C79.8555 69.8315 80.5482 70.2141 81.3058 70.3742C82.0635 70.5342 82.8517 70.4645 83.5696 70.174C84.2874 69.8834 84.9021 69.3852 85.3351 68.7432C85.7681 68.1011 85.9996 67.3444 86 66.57C86.0424 66.0562 85.9739 65.5392 85.7993 65.0541C85.6246 64.5689 85.3477 64.127 84.9874 63.7582C84.6271 63.3893 84.1917 63.1022 83.7108 62.9162C83.2299 62.7302 82.7147 62.6496 82.2 62.68M90.4 74.26H86V72.26C85.4503 72.9932 84.74 73.5907 83.9235 74.0067C83.1071 74.4227 82.2062 74.6462 81.29 74.66C76.73 74.66 73.73 71.37 73.73 66.72C73.73 62.45 76.39 58.53 80.73 58.53C81.6425 58.4499 82.5609 58.5896 83.4083 58.9376C84.2556 59.2856 85.0072 59.8317 85.6 60.53H85.66V51.73H90.4V74.26ZM124.6 47H97.36C97.0506 46.9961 96.7436 47.0537 96.4568 47.1696C96.17 47.2856 95.9091 47.4575 95.6894 47.6753C95.4697 47.8931 95.2956 48.1525 95.1772 48.4383C95.0589 48.7241 94.9986 49.0307 95 49.34V76.69C95.0026 76.9969 95.0658 77.3002 95.1859 77.5825C95.306 77.8649 95.4808 78.1207 95.7001 78.3353C95.9193 78.55 96.1789 78.7192 96.4637 78.8333C96.7486 78.9473 97.0531 79.004 97.36 79H124.6C124.91 79.008 125.218 78.9544 125.507 78.8422C125.796 78.7301 126.06 78.5617 126.283 78.3467C126.506 78.1318 126.685 77.8747 126.808 77.5903C126.931 77.3059 126.996 76.9999 127 76.69V49.34C127 49.0276 126.938 48.7184 126.816 48.4305C126.695 48.1426 126.517 47.8819 126.294 47.6638C126.07 47.4457 125.805 47.2746 125.514 47.1606C125.223 47.0466 124.912 46.992 124.6 47ZM104.48 74.27H99.74V59H104.48V74.27ZM102.11 56.93C101.566 56.93 101.034 56.7688 100.582 56.4666C100.13 56.1644 99.7774 55.7349 99.5693 55.2324C99.3612 54.7299 99.3067 54.177 99.4128 53.6435C99.5189 53.1101 99.7808 52.6201 100.165 52.2355C100.55 51.8509 101.04 51.589 101.573 51.4829C102.107 51.3768 102.66 51.4312 103.162 51.6394C103.665 51.8475 104.094 52.2 104.397 52.6522C104.699 53.1045 104.86 53.6361 104.86 54.18C104.86 54.9094 104.57 55.6089 104.055 56.1246C103.539 56.6403 102.839 56.93 102.11 56.93ZM122.24 74.27H117.5V66.85C117.5 65.08 117.5 62.85 115.04 62.85C112.58 62.85 112.19 64.78 112.19 66.77V74.32H107.45V59H112V61.1H112.06C112.517 60.3234 113.176 59.6848 113.966 59.2518C114.757 58.8187 115.649 58.6074 116.55 58.64C121.35 58.64 122.24 61.8 122.24 65.91V74.27Z" fill="#C4C4C4"/>
</svg>
