<svg xmlns="http://www.w3.org/2000/svg" width="24" height="24" viewBox="0 0 32 32"><title>bxs badge check</title><g fill="#fe2c55" class="nc-icon-wrapper"><g fill="#fe2c55"><path transform="scale(1,-1) translate(0,-30)" d="M 26.62 19.03865625 c 0.03065625 0.232 0.04665625 0.464 0.04665625 0.69465625 0 3.172 -2.85734375 5.71734375 -6.028 5.28665625 -0.924 1.644 -2.684 2.71334375 -4.63865625 2.71334375 s -3.71465625 -1.06934375 -4.63865625 -2.71334375 c -3.17734375 0.43065625 -6.028 -2.11465625 -6.028 -5.28665625 0 -0.23065625 0.016 -0.46265625 0.04665625 -0.69465625 -1.644 -0.92534375 -2.71334375 -2.68534375 -2.71334375 -4.63865625 s 1.06934375 -3.71334375 2.71334375 -4.63865625 c -0.029375 -0.208375 -0.0463125 -0.449375 -0.04665625 -0.69428125 v -0.00040625 c 0 -3.172 2.85065625 -5.71065625 6.028 -5.28665625 0.924 -1.644 2.684 -2.71334375 4.63865625 -2.71334375 s 3.71465625 1.06934375 4.63865625 2.71334375 c 3.17065625 -0.424 6.028 2.11465625 6.028 5.28665625 0 0.23065625 -0.016 0.46265625 -0.04665625 0.69465625 1.644 0.92534375 2.71334375 2.68534375 2.71334375 4.63865625 s -1.06934375 3.71334375 -2.71334375 4.63865625 z M 14.60665625 8.512 l -4.88934375 4.952 1.89865625 1.872 3.00934375 -3.048 5.76934375 5.72534375 1.87734375 -1.89334375 -7.66534375 -7.608 z"></path></g></g></svg>